<svg width="148" height="131" viewBox="0 0 148 131" fill="none" xmlns="http://www.w3.org/2000/svg">
<g opacity="0.6" clip-path="url(#clip0_103_12)">
<path d="M58 65.5C76.3062 65.5 91.1429 50.8367 91.1429 32.75C91.1429 14.6633 76.3062 0 58 0C39.6938 0 24.8571 14.6633 24.8571 32.75C24.8571 50.8367 39.6938 65.5 58 65.5ZM71.1277 77.7812H44.8723C20.0954 77.7812 0 97.6359 0 122.122C0 127.019 4.01857 130.992 8.97446 130.992H107.031C111.987 131 116 127.034 116 122.122C116 97.6359 95.9071 77.7812 71.1277 77.7812Z" fill="#FF78C3"/>
</g>
<g opacity="0.6" clip-path="url(#clip1_103_12)">
<path d="M90 65.5C108.306 65.5 123.143 50.8367 123.143 32.75C123.143 14.6633 108.306 0 90 0C71.6938 0 56.8571 14.6633 56.8571 32.75C56.8571 50.8367 71.6938 65.5 90 65.5ZM103.128 77.7812H76.8723C52.0954 77.7812 32 97.6359 32 122.122C32 127.019 36.0186 130.992 40.9745 130.992H139.031C143.987 131 148 127.034 148 122.122C148 97.6359 127.907 77.7812 103.128 77.7812Z" fill="#A487C3"/>
</g>
<defs>
<clipPath id="clip0_103_12">
<rect width="116" height="131" fill="white"/>
</clipPath>
<clipPath id="clip1_103_12">
<rect width="116" height="131" fill="white" transform="translate(32)"/>
</clipPath>
</defs>
</svg>
